<mxfile host="app.diagrams.net" agent="Mozilla/5.0 (Macintosh; Intel Mac OS X 10_15_7) AppleWebKit/537.36 (KHTML, like Gecko) Chrome/129.0.0.0 Safari/537.36" version="24.8.6" pages="3">
  <diagram name="Use Case Administrateur" id="l7_6842ziKOt0-0Xievm">
    <mxGraphModel dx="972" dy="586" grid="1" gridSize="10" guides="1" tooltips="1" connect="1" arrows="1" fold="1" page="1" pageScale="1" pageWidth="827" pageHeight="1169" math="0" shadow="0">
      <root>
        <mxCell id="0" />
        <mxCell id="1" parent="0" />
        <mxCell id="h6hY_4k64emo4dRaIo8V-1" value="&lt;font style=&quot;font-size: 17px;&quot;&gt;Administrateur&amp;nbsp;&lt;/font&gt;" style="text;html=1;align=center;verticalAlign=middle;whiteSpace=wrap;rounded=0;" parent="1" vertex="1">
          <mxGeometry x="60" y="310" width="50" height="30" as="geometry" />
        </mxCell>
        <mxCell id="h6hY_4k64emo4dRaIo8V-2" value="" style="ellipse;whiteSpace=wrap;html=1;aspect=fixed;" parent="1" vertex="1">
          <mxGeometry x="46" y="380" width="50" height="50" as="geometry" />
        </mxCell>
        <mxCell id="h6hY_4k64emo4dRaIo8V-3" value="" style="endArrow=none;html=1;rounded=0;" parent="1" edge="1">
          <mxGeometry width="50" height="50" relative="1" as="geometry">
            <mxPoint x="70" y="540" as="sourcePoint" />
            <mxPoint x="70" y="430" as="targetPoint" />
          </mxGeometry>
        </mxCell>
        <mxCell id="h6hY_4k64emo4dRaIo8V-4" value="" style="endArrow=none;html=1;rounded=0;" parent="1" edge="1">
          <mxGeometry width="50" height="50" relative="1" as="geometry">
            <mxPoint x="70" y="460" as="sourcePoint" />
            <mxPoint x="100" y="460" as="targetPoint" />
          </mxGeometry>
        </mxCell>
        <mxCell id="h6hY_4k64emo4dRaIo8V-5" value="" style="endArrow=none;html=1;rounded=0;" parent="1" edge="1">
          <mxGeometry width="50" height="50" relative="1" as="geometry">
            <mxPoint x="40" y="460" as="sourcePoint" />
            <mxPoint x="70" y="460" as="targetPoint" />
          </mxGeometry>
        </mxCell>
        <mxCell id="h6hY_4k64emo4dRaIo8V-6" value="" style="endArrow=none;html=1;rounded=0;" parent="1" edge="1">
          <mxGeometry width="50" height="50" relative="1" as="geometry">
            <mxPoint x="40" y="570" as="sourcePoint" />
            <mxPoint x="70" y="540" as="targetPoint" />
          </mxGeometry>
        </mxCell>
        <mxCell id="h6hY_4k64emo4dRaIo8V-7" value="" style="endArrow=none;html=1;rounded=0;" parent="1" edge="1">
          <mxGeometry width="50" height="50" relative="1" as="geometry">
            <mxPoint x="90" y="570" as="sourcePoint" />
            <mxPoint x="70" y="540" as="targetPoint" />
          </mxGeometry>
        </mxCell>
        <mxCell id="h6hY_4k64emo4dRaIo8V-9" value="&lt;font style=&quot;font-size: 16px;&quot;&gt;Ajouter un livre&lt;/font&gt;" style="ellipse;whiteSpace=wrap;html=1;" parent="1" vertex="1">
          <mxGeometry x="320" y="60" width="250" height="60" as="geometry" />
        </mxCell>
        <mxCell id="h6hY_4k64emo4dRaIo8V-10" value="&lt;font style=&quot;font-size: 15px;&quot;&gt;Consulter et modifier la fiche d&#39;un livre&lt;/font&gt;" style="ellipse;whiteSpace=wrap;html=1;" parent="1" vertex="1">
          <mxGeometry x="320" y="130" width="250" height="60" as="geometry" />
        </mxCell>
        <mxCell id="h6hY_4k64emo4dRaIo8V-11" value="&lt;font style=&quot;font-size: 15px;&quot;&gt;Supprimer un livre de la BDD&amp;nbsp;&lt;/font&gt;" style="ellipse;whiteSpace=wrap;html=1;" parent="1" vertex="1">
          <mxGeometry x="320" y="200" width="250" height="60" as="geometry" />
        </mxCell>
        <mxCell id="h6hY_4k64emo4dRaIo8V-12" value="&lt;font style=&quot;font-size: 15px;&quot;&gt;Consulter la liste complète des livres empruntés&lt;/font&gt;" style="ellipse;whiteSpace=wrap;html=1;" parent="1" vertex="1">
          <mxGeometry x="320" y="270" width="250" height="80" as="geometry" />
        </mxCell>
        <mxCell id="h6hY_4k64emo4dRaIo8V-13" value="&lt;font style=&quot;font-size: 15px;&quot;&gt;Consulter les retours en retard&lt;/font&gt;" style="ellipse;whiteSpace=wrap;html=1;" parent="1" vertex="1">
          <mxGeometry x="320" y="364" width="250" height="60" as="geometry" />
        </mxCell>
        <mxCell id="h6hY_4k64emo4dRaIo8V-14" value="&lt;font style=&quot;font-size: 15px;&quot;&gt;Superviser les emprunts et les retours de livres&lt;/font&gt;" style="ellipse;whiteSpace=wrap;html=1;" parent="1" vertex="1">
          <mxGeometry x="670" y="440" width="250" height="80" as="geometry" />
        </mxCell>
        <mxCell id="h6hY_4k64emo4dRaIo8V-15" value="&lt;font style=&quot;font-size: 15px;&quot;&gt;Consulter les informations des utilisateurs&amp;nbsp;&lt;/font&gt;" style="ellipse;whiteSpace=wrap;html=1;" parent="1" vertex="1">
          <mxGeometry x="670" y="620" width="250" height="80" as="geometry" />
        </mxCell>
        <mxCell id="h6hY_4k64emo4dRaIo8V-23" value="&lt;font style=&quot;font-size: 15px;&quot;&gt;Rechercher un livre&amp;nbsp;&lt;/font&gt;" style="ellipse;whiteSpace=wrap;html=1;" parent="1" vertex="1">
          <mxGeometry x="310" y="810" width="250" height="80" as="geometry" />
        </mxCell>
        <mxCell id="TnjH3VYQkSdJ8-T-EVtM-1" value="&lt;font style=&quot;font-size: 15px;&quot;&gt;Enregistrer les emprunts&amp;nbsp;&lt;/font&gt;" style="ellipse;whiteSpace=wrap;html=1;" vertex="1" parent="1">
          <mxGeometry x="320" y="530" width="250" height="80" as="geometry" />
        </mxCell>
        <mxCell id="TnjH3VYQkSdJ8-T-EVtM-2" value="&lt;font style=&quot;font-size: 15px;&quot;&gt;Enregistrer les retours de livres&lt;/font&gt;" style="ellipse;whiteSpace=wrap;html=1;" vertex="1" parent="1">
          <mxGeometry x="320" y="440" width="250" height="80" as="geometry" />
        </mxCell>
        <mxCell id="TnjH3VYQkSdJ8-T-EVtM-3" value="&lt;font style=&quot;font-size: 15px;&quot;&gt;Ajouter les informations d&#39;un utilisateur&amp;nbsp;&lt;/font&gt;" style="ellipse;whiteSpace=wrap;html=1;" vertex="1" parent="1">
          <mxGeometry x="320" y="620" width="250" height="80" as="geometry" />
        </mxCell>
        <mxCell id="TnjH3VYQkSdJ8-T-EVtM-4" value="&lt;font style=&quot;font-size: 15px;&quot;&gt;Modifier les informations d&#39;un utilisateur&amp;nbsp;&lt;/font&gt;" style="ellipse;whiteSpace=wrap;html=1;" vertex="1" parent="1">
          <mxGeometry x="320" y="710" width="250" height="80" as="geometry" />
        </mxCell>
        <mxCell id="TnjH3VYQkSdJ8-T-EVtM-5" value="" style="endArrow=classic;html=1;rounded=0;exitX=1;exitY=0.5;exitDx=0;exitDy=0;" edge="1" parent="1" source="TnjH3VYQkSdJ8-T-EVtM-2">
          <mxGeometry width="50" height="50" relative="1" as="geometry">
            <mxPoint x="590" y="500" as="sourcePoint" />
            <mxPoint x="660" y="480" as="targetPoint" />
          </mxGeometry>
        </mxCell>
        <mxCell id="TnjH3VYQkSdJ8-T-EVtM-7" value="" style="endArrow=classic;html=1;rounded=0;exitX=1;exitY=0.375;exitDx=0;exitDy=0;exitPerimeter=0;" edge="1" parent="1" source="TnjH3VYQkSdJ8-T-EVtM-1">
          <mxGeometry width="50" height="50" relative="1" as="geometry">
            <mxPoint x="580" y="490" as="sourcePoint" />
            <mxPoint x="660" y="500" as="targetPoint" />
          </mxGeometry>
        </mxCell>
        <mxCell id="TnjH3VYQkSdJ8-T-EVtM-8" value="" style="endArrow=classic;html=1;rounded=0;exitX=1;exitY=0.5;exitDx=0;exitDy=0;" edge="1" parent="1" source="TnjH3VYQkSdJ8-T-EVtM-4">
          <mxGeometry width="50" height="50" relative="1" as="geometry">
            <mxPoint x="580" y="750" as="sourcePoint" />
            <mxPoint x="670" y="690" as="targetPoint" />
          </mxGeometry>
        </mxCell>
        <mxCell id="TnjH3VYQkSdJ8-T-EVtM-9" value="" style="endArrow=classic;html=1;rounded=0;exitX=1;exitY=0.5;exitDx=0;exitDy=0;" edge="1" parent="1" source="TnjH3VYQkSdJ8-T-EVtM-3">
          <mxGeometry width="50" height="50" relative="1" as="geometry">
            <mxPoint x="580" y="660" as="sourcePoint" />
            <mxPoint x="660" y="650" as="targetPoint" />
          </mxGeometry>
        </mxCell>
        <mxCell id="TnjH3VYQkSdJ8-T-EVtM-10" value="" style="endArrow=classic;html=1;rounded=0;" edge="1" parent="1">
          <mxGeometry width="50" height="50" relative="1" as="geometry">
            <mxPoint x="110" y="460" as="sourcePoint" />
            <mxPoint x="310" y="100" as="targetPoint" />
          </mxGeometry>
        </mxCell>
        <mxCell id="TnjH3VYQkSdJ8-T-EVtM-11" value="" style="endArrow=classic;html=1;rounded=0;" edge="1" parent="1">
          <mxGeometry width="50" height="50" relative="1" as="geometry">
            <mxPoint x="110" y="460" as="sourcePoint" />
            <mxPoint x="310" y="240" as="targetPoint" />
          </mxGeometry>
        </mxCell>
        <mxCell id="TnjH3VYQkSdJ8-T-EVtM-12" value="" style="endArrow=classic;html=1;rounded=0;" edge="1" parent="1">
          <mxGeometry width="50" height="50" relative="1" as="geometry">
            <mxPoint x="110" y="460" as="sourcePoint" />
            <mxPoint x="310" y="340" as="targetPoint" />
          </mxGeometry>
        </mxCell>
        <mxCell id="TnjH3VYQkSdJ8-T-EVtM-13" value="" style="endArrow=classic;html=1;rounded=0;" edge="1" parent="1">
          <mxGeometry width="50" height="50" relative="1" as="geometry">
            <mxPoint x="110" y="460" as="sourcePoint" />
            <mxPoint x="310" y="410" as="targetPoint" />
          </mxGeometry>
        </mxCell>
        <mxCell id="TnjH3VYQkSdJ8-T-EVtM-15" value="" style="endArrow=classic;html=1;rounded=0;" edge="1" parent="1">
          <mxGeometry width="50" height="50" relative="1" as="geometry">
            <mxPoint x="110" y="460" as="sourcePoint" />
            <mxPoint x="310" y="480" as="targetPoint" />
          </mxGeometry>
        </mxCell>
        <mxCell id="TnjH3VYQkSdJ8-T-EVtM-16" value="" style="endArrow=classic;html=1;rounded=0;" edge="1" parent="1">
          <mxGeometry width="50" height="50" relative="1" as="geometry">
            <mxPoint x="110" y="460" as="sourcePoint" />
            <mxPoint x="300" y="560" as="targetPoint" />
          </mxGeometry>
        </mxCell>
        <mxCell id="TnjH3VYQkSdJ8-T-EVtM-17" value="" style="endArrow=classic;html=1;rounded=0;" edge="1" parent="1">
          <mxGeometry width="50" height="50" relative="1" as="geometry">
            <mxPoint x="110" y="460" as="sourcePoint" />
            <mxPoint x="310" y="650" as="targetPoint" />
          </mxGeometry>
        </mxCell>
        <mxCell id="TnjH3VYQkSdJ8-T-EVtM-18" value="" style="endArrow=classic;html=1;rounded=0;" edge="1" parent="1">
          <mxGeometry width="50" height="50" relative="1" as="geometry">
            <mxPoint x="110" y="460" as="sourcePoint" />
            <mxPoint x="310" y="740" as="targetPoint" />
          </mxGeometry>
        </mxCell>
        <mxCell id="TnjH3VYQkSdJ8-T-EVtM-19" value="" style="endArrow=classic;html=1;rounded=0;" edge="1" parent="1">
          <mxGeometry width="50" height="50" relative="1" as="geometry">
            <mxPoint x="110" y="460" as="sourcePoint" />
            <mxPoint x="300" y="830" as="targetPoint" />
          </mxGeometry>
        </mxCell>
      </root>
    </mxGraphModel>
  </diagram>
  <diagram id="mZXNF1qrM8smKfTDwUxs" name="Use Case Utilisateur">
    <mxGraphModel dx="972" dy="586" grid="1" gridSize="10" guides="1" tooltips="1" connect="1" arrows="1" fold="1" page="1" pageScale="1" pageWidth="827" pageHeight="1169" math="0" shadow="0">
      <root>
        <mxCell id="0" />
        <mxCell id="1" parent="0" />
        <mxCell id="kSYVqe5ixZlMILHMSmwR-8" value="&lt;font style=&quot;font-size: 15px;&quot;&gt;Rechercher un livre&amp;nbsp;&lt;/font&gt;" style="ellipse;whiteSpace=wrap;html=1;" parent="1" vertex="1">
          <mxGeometry x="349" y="270" width="250" height="80" as="geometry" />
        </mxCell>
        <mxCell id="kSYVqe5ixZlMILHMSmwR-9" value="&lt;font style=&quot;font-size: 15px;&quot;&gt;Consulter la disponibilité d’un livre&amp;nbsp;&lt;/font&gt;" style="ellipse;whiteSpace=wrap;html=1;" parent="1" vertex="1">
          <mxGeometry x="359" y="360" width="250" height="80" as="geometry" />
        </mxCell>
        <mxCell id="kSYVqe5ixZlMILHMSmwR-10" value="&lt;font style=&quot;font-size: 15px;&quot;&gt;Emprunter un livre&lt;/font&gt;" style="ellipse;whiteSpace=wrap;html=1;" parent="1" vertex="1">
          <mxGeometry x="359" y="450" width="250" height="80" as="geometry" />
        </mxCell>
        <mxCell id="kSYVqe5ixZlMILHMSmwR-11" value="&lt;font style=&quot;font-size: 14px;&quot;&gt;Consulter la liste des livres que l&#39;utilisateur a déjà empruntés&lt;/font&gt;" style="ellipse;whiteSpace=wrap;html=1;" parent="1" vertex="1">
          <mxGeometry x="359" y="544.5" width="250" height="80" as="geometry" />
        </mxCell>
        <mxCell id="kSYVqe5ixZlMILHMSmwR-12" value="&lt;font style=&quot;font-size: 15px;&quot;&gt;Prolonger la durée d’emprunt&amp;nbsp;&lt;/font&gt;" style="ellipse;whiteSpace=wrap;html=1;" parent="1" vertex="1">
          <mxGeometry x="359" y="637" width="250" height="80" as="geometry" />
        </mxCell>
        <mxCell id="kSYVqe5ixZlMILHMSmwR-13" value="&lt;font style=&quot;font-size: 15px;&quot;&gt;Réserver un livre&lt;/font&gt;" style="ellipse;whiteSpace=wrap;html=1;" parent="1" vertex="1">
          <mxGeometry x="359" y="730" width="250" height="80" as="geometry" />
        </mxCell>
        <mxCell id="kSYVqe5ixZlMILHMSmwR-14" value="&lt;font style=&quot;font-size: 15px;&quot;&gt;Recevoir des rappels quand la date de retour est passée&lt;/font&gt;" style="ellipse;whiteSpace=wrap;html=1;" parent="1" vertex="1">
          <mxGeometry x="359" y="830" width="250" height="80" as="geometry" />
        </mxCell>
        <mxCell id="kSYVqe5ixZlMILHMSmwR-15" value="&lt;font style=&quot;font-size: 15px;&quot;&gt;Consulter l’historique de ses emprunts&lt;/font&gt;" style="ellipse;whiteSpace=wrap;html=1;" parent="1" vertex="1">
          <mxGeometry x="359" y="930" width="250" height="80" as="geometry" />
        </mxCell>
        <mxCell id="Kgb8F6rBOtUz5PoyAQ7n-2" value="&lt;font style=&quot;font-size: 15px;&quot;&gt;Utilisateur&lt;/font&gt;" style="text;html=1;align=center;verticalAlign=middle;whiteSpace=wrap;rounded=0;" vertex="1" parent="1">
          <mxGeometry x="50" y="390" width="94" height="40" as="geometry" />
        </mxCell>
        <mxCell id="Kgb8F6rBOtUz5PoyAQ7n-4" value="" style="group" vertex="1" connectable="0" parent="1">
          <mxGeometry x="70" y="470" width="60" height="160" as="geometry" />
        </mxCell>
        <mxCell id="kSYVqe5ixZlMILHMSmwR-2" value="" style="ellipse;whiteSpace=wrap;html=1;aspect=fixed;" parent="Kgb8F6rBOtUz5PoyAQ7n-4" vertex="1">
          <mxGeometry x="5" width="50" height="50" as="geometry" />
        </mxCell>
        <mxCell id="Kgb8F6rBOtUz5PoyAQ7n-3" value="" style="group" vertex="1" connectable="0" parent="Kgb8F6rBOtUz5PoyAQ7n-4">
          <mxGeometry y="50" width="60" height="110" as="geometry" />
        </mxCell>
        <mxCell id="kSYVqe5ixZlMILHMSmwR-3" value="" style="endArrow=none;html=1;rounded=0;" parent="Kgb8F6rBOtUz5PoyAQ7n-3" edge="1">
          <mxGeometry width="50" height="50" relative="1" as="geometry">
            <mxPoint x="30" y="110" as="sourcePoint" />
            <mxPoint x="30" as="targetPoint" />
          </mxGeometry>
        </mxCell>
        <mxCell id="kSYVqe5ixZlMILHMSmwR-4" value="" style="endArrow=none;html=1;rounded=0;" parent="Kgb8F6rBOtUz5PoyAQ7n-3" edge="1">
          <mxGeometry width="50" height="50" relative="1" as="geometry">
            <mxPoint x="30" y="30" as="sourcePoint" />
            <mxPoint x="60" y="30" as="targetPoint" />
          </mxGeometry>
        </mxCell>
        <mxCell id="kSYVqe5ixZlMILHMSmwR-5" value="" style="endArrow=none;html=1;rounded=0;" parent="Kgb8F6rBOtUz5PoyAQ7n-3" edge="1">
          <mxGeometry width="50" height="50" relative="1" as="geometry">
            <mxPoint y="30" as="sourcePoint" />
            <mxPoint x="30" y="30" as="targetPoint" />
          </mxGeometry>
        </mxCell>
        <mxCell id="Kgb8F6rBOtUz5PoyAQ7n-5" value="" style="group" vertex="1" connectable="0" parent="1">
          <mxGeometry x="70" y="630" width="50" height="30" as="geometry" />
        </mxCell>
        <mxCell id="kSYVqe5ixZlMILHMSmwR-6" value="" style="endArrow=none;html=1;rounded=0;" parent="Kgb8F6rBOtUz5PoyAQ7n-5" edge="1">
          <mxGeometry width="50" height="50" relative="1" as="geometry">
            <mxPoint y="30" as="sourcePoint" />
            <mxPoint x="30" as="targetPoint" />
          </mxGeometry>
        </mxCell>
        <mxCell id="kSYVqe5ixZlMILHMSmwR-7" value="" style="endArrow=none;html=1;rounded=0;" parent="Kgb8F6rBOtUz5PoyAQ7n-5" edge="1">
          <mxGeometry width="50" height="50" relative="1" as="geometry">
            <mxPoint x="50" y="30" as="sourcePoint" />
            <mxPoint x="30" as="targetPoint" />
          </mxGeometry>
        </mxCell>
        <mxCell id="Kgb8F6rBOtUz5PoyAQ7n-6" value="&lt;font style=&quot;font-size: 15px;&quot;&gt;Créer un compte&amp;nbsp;&lt;/font&gt;" style="ellipse;whiteSpace=wrap;html=1;" vertex="1" parent="1">
          <mxGeometry x="349" y="180" width="250" height="80" as="geometry" />
        </mxCell>
        <mxCell id="I3YZLtBvQ_e3PnXK_7ps-1" value="" style="endArrow=classic;html=1;rounded=0;" edge="1" parent="1">
          <mxGeometry width="50" height="50" relative="1" as="geometry">
            <mxPoint x="160" y="580" as="sourcePoint" />
            <mxPoint x="350" y="240" as="targetPoint" />
          </mxGeometry>
        </mxCell>
        <mxCell id="I3YZLtBvQ_e3PnXK_7ps-2" value="" style="endArrow=classic;html=1;rounded=0;" edge="1" parent="1">
          <mxGeometry width="50" height="50" relative="1" as="geometry">
            <mxPoint x="160" y="580" as="sourcePoint" />
            <mxPoint x="340" y="330" as="targetPoint" />
          </mxGeometry>
        </mxCell>
        <mxCell id="I3YZLtBvQ_e3PnXK_7ps-3" value="" style="endArrow=classic;html=1;rounded=0;" edge="1" parent="1">
          <mxGeometry width="50" height="50" relative="1" as="geometry">
            <mxPoint x="160" y="580" as="sourcePoint" />
            <mxPoint x="350" y="420" as="targetPoint" />
          </mxGeometry>
        </mxCell>
        <mxCell id="I3YZLtBvQ_e3PnXK_7ps-4" value="" style="endArrow=classic;html=1;rounded=0;" edge="1" parent="1">
          <mxGeometry width="50" height="50" relative="1" as="geometry">
            <mxPoint x="160" y="580" as="sourcePoint" />
            <mxPoint x="350" y="510" as="targetPoint" />
          </mxGeometry>
        </mxCell>
        <mxCell id="I3YZLtBvQ_e3PnXK_7ps-5" value="" style="endArrow=classic;html=1;rounded=0;" edge="1" parent="1">
          <mxGeometry width="50" height="50" relative="1" as="geometry">
            <mxPoint x="160" y="580" as="sourcePoint" />
            <mxPoint x="350" y="580" as="targetPoint" />
          </mxGeometry>
        </mxCell>
      </root>
    </mxGraphModel>
  </diagram>
  <diagram id="U7rpI8pbTSlIonjGGFYO" name="MCD">
    <mxGraphModel dx="2447" dy="2146" grid="1" gridSize="10" guides="1" tooltips="1" connect="1" arrows="1" fold="1" page="1" pageScale="1" pageWidth="827" pageHeight="1169" math="0" shadow="0">
      <root>
        <mxCell id="0" />
        <mxCell id="1" parent="0" />
        <mxCell id="EbsH332W0nCXXA7KUUEa-4" value="" style="group" vertex="1" connectable="0" parent="1">
          <mxGeometry x="-20" y="90" width="160" height="200" as="geometry" />
        </mxCell>
        <mxCell id="EbsH332W0nCXXA7KUUEa-1" value="&lt;font style=&quot;font-size: 15px;&quot;&gt;Livre&lt;/font&gt;" style="rounded=1;whiteSpace=wrap;html=1;" vertex="1" parent="EbsH332W0nCXXA7KUUEa-4">
          <mxGeometry width="160" height="50" as="geometry" />
        </mxCell>
        <mxCell id="EbsH332W0nCXXA7KUUEa-3" value="&lt;font style=&quot;font-size: 15px;&quot;&gt;Id_Livre&lt;/font&gt;&lt;div style=&quot;font-size: 15px;&quot;&gt;&lt;font style=&quot;font-size: 15px;&quot;&gt;Titre&lt;/font&gt;&lt;/div&gt;&lt;div style=&quot;font-size: 15px;&quot;&gt;&lt;font style=&quot;font-size: 15px;&quot;&gt;Auteur&lt;/font&gt;&lt;/div&gt;&lt;div style=&quot;font-size: 15px;&quot;&gt;&lt;font style=&quot;font-size: 15px;&quot;&gt;Annéeedition&lt;/font&gt;&lt;/div&gt;&lt;div style=&quot;font-size: 15px;&quot;&gt;&lt;font style=&quot;font-size: 15px;&quot;&gt;Catégorie&lt;/font&gt;&lt;/div&gt;&lt;div style=&quot;font-size: 15px;&quot;&gt;&lt;font style=&quot;font-size: 15px;&quot;&gt;Disponibilité&lt;/font&gt;&lt;/div&gt;&lt;div style=&quot;font-size: 15px;&quot;&gt;&lt;br&gt;&lt;/div&gt;" style="whiteSpace=wrap;html=1;aspect=fixed;" vertex="1" parent="EbsH332W0nCXXA7KUUEa-4">
          <mxGeometry y="40" width="160" height="160" as="geometry" />
        </mxCell>
        <mxCell id="EbsH332W0nCXXA7KUUEa-5" value="" style="group" vertex="1" connectable="0" parent="1">
          <mxGeometry x="500" y="90" width="160" height="200" as="geometry" />
        </mxCell>
        <mxCell id="EbsH332W0nCXXA7KUUEa-6" value="&lt;font style=&quot;font-size: 15px;&quot;&gt;Utilisateur&lt;/font&gt;" style="rounded=1;whiteSpace=wrap;html=1;" vertex="1" parent="EbsH332W0nCXXA7KUUEa-5">
          <mxGeometry width="160" height="50" as="geometry" />
        </mxCell>
        <mxCell id="EbsH332W0nCXXA7KUUEa-7" value="&lt;font style=&quot;font-size: 15px;&quot;&gt;Id_Utilisateur&lt;/font&gt;&lt;div style=&quot;font-size: 15px;&quot;&gt;&lt;font style=&quot;font-size: 15px;&quot;&gt;Nom&lt;/font&gt;&lt;/div&gt;&lt;div style=&quot;font-size: 15px;&quot;&gt;&lt;font style=&quot;font-size: 15px;&quot;&gt;Prénom&lt;/font&gt;&lt;/div&gt;&lt;div style=&quot;font-size: 15px;&quot;&gt;&lt;span style=&quot;background-color: initial;&quot;&gt;Adresse&lt;/span&gt;&lt;/div&gt;&lt;div style=&quot;font-size: 15px;&quot;&gt;Statut (Utilisateur ou administrateur)&lt;/div&gt;&lt;div style=&quot;font-size: 15px;&quot;&gt;&lt;br&gt;&lt;/div&gt;&lt;div style=&quot;font-size: 15px;&quot;&gt;&lt;br&gt;&lt;/div&gt;" style="whiteSpace=wrap;html=1;aspect=fixed;" vertex="1" parent="EbsH332W0nCXXA7KUUEa-5">
          <mxGeometry y="40" width="160" height="160" as="geometry" />
        </mxCell>
        <mxCell id="EbsH332W0nCXXA7KUUEa-8" value="" style="group" vertex="1" connectable="0" parent="1">
          <mxGeometry x="720" y="880" width="160" height="200" as="geometry" />
        </mxCell>
        <mxCell id="EbsH332W0nCXXA7KUUEa-9" value="&lt;font style=&quot;font-size: 15px;&quot;&gt;Notification&lt;/font&gt;" style="rounded=1;whiteSpace=wrap;html=1;" vertex="1" parent="EbsH332W0nCXXA7KUUEa-8">
          <mxGeometry width="160" height="50" as="geometry" />
        </mxCell>
        <mxCell id="EbsH332W0nCXXA7KUUEa-10" value="&lt;font style=&quot;font-size: 15px;&quot;&gt;Id_Notification&lt;/font&gt;&lt;div style=&quot;font-size: 15px;&quot;&gt;&lt;span style=&quot;background-color: initial;&quot;&gt;Date&lt;/span&gt;&lt;br&gt;&lt;/div&gt;&lt;div style=&quot;font-size: 15px;&quot;&gt;Type(retard, réservation disponible)&lt;/div&gt;&lt;div style=&quot;font-size: 15px;&quot;&gt;&lt;br&gt;&lt;/div&gt;&lt;div style=&quot;font-size: 15px;&quot;&gt;&lt;br&gt;&lt;/div&gt;&lt;div style=&quot;font-size: 15px;&quot;&gt;&lt;br&gt;&lt;/div&gt;" style="whiteSpace=wrap;html=1;aspect=fixed;" vertex="1" parent="EbsH332W0nCXXA7KUUEa-8">
          <mxGeometry y="40" width="160" height="160" as="geometry" />
        </mxCell>
        <mxCell id="EbsH332W0nCXXA7KUUEa-11" value="" style="group" vertex="1" connectable="0" parent="1">
          <mxGeometry x="-170" y="690" width="160" height="200" as="geometry" />
        </mxCell>
        <mxCell id="EbsH332W0nCXXA7KUUEa-12" value="&lt;font style=&quot;font-size: 15px;&quot;&gt;Emprunt&lt;/font&gt;" style="rounded=1;whiteSpace=wrap;html=1;" vertex="1" parent="EbsH332W0nCXXA7KUUEa-11">
          <mxGeometry width="160" height="50" as="geometry" />
        </mxCell>
        <mxCell id="EbsH332W0nCXXA7KUUEa-13" value="&lt;font style=&quot;font-size: 15px;&quot;&gt;Id_Emprunt&lt;/font&gt;&lt;div style=&quot;font-size: 15px;&quot;&gt;&lt;span style=&quot;background-color: initial;&quot;&gt;Date_Emprunt&lt;/span&gt;&lt;br&gt;&lt;/div&gt;&lt;div style=&quot;font-size: 15px;&quot;&gt;&lt;span style=&quot;background-color: initial;&quot;&gt;Date_Retour&lt;/span&gt;&lt;/div&gt;&lt;div style=&quot;font-size: 15px;&quot;&gt;&lt;span style=&quot;background-color: initial;&quot;&gt;Notif_Retard&lt;/span&gt;&lt;/div&gt;&lt;div style=&quot;font-size: 15px;&quot;&gt;Statut(prolongé, retourné)&lt;/div&gt;&lt;div style=&quot;font-size: 15px;&quot;&gt;&lt;br&gt;&lt;/div&gt;&lt;div style=&quot;font-size: 15px;&quot;&gt;&lt;br&gt;&lt;/div&gt;&lt;div style=&quot;font-size: 15px;&quot;&gt;&lt;br&gt;&lt;/div&gt;" style="whiteSpace=wrap;html=1;aspect=fixed;" vertex="1" parent="EbsH332W0nCXXA7KUUEa-11">
          <mxGeometry y="40" width="160" height="160" as="geometry" />
        </mxCell>
        <mxCell id="EbsH332W0nCXXA7KUUEa-15" value="" style="group" vertex="1" connectable="0" parent="1">
          <mxGeometry x="190" y="450" width="160" height="200" as="geometry" />
        </mxCell>
        <mxCell id="EbsH332W0nCXXA7KUUEa-16" value="&lt;font style=&quot;font-size: 15px;&quot;&gt;Catégorie&lt;/font&gt;" style="rounded=1;whiteSpace=wrap;html=1;" vertex="1" parent="EbsH332W0nCXXA7KUUEa-15">
          <mxGeometry width="160" height="50" as="geometry" />
        </mxCell>
        <mxCell id="EbsH332W0nCXXA7KUUEa-17" value="&lt;font style=&quot;font-size: 15px;&quot;&gt;Id_Catégorie&lt;/font&gt;&lt;div style=&quot;font-size: 15px;&quot;&gt;Nom&lt;/div&gt;&lt;div style=&quot;font-size: 15px;&quot;&gt;&lt;br&gt;&lt;/div&gt;&lt;div style=&quot;font-size: 15px;&quot;&gt;&lt;br&gt;&lt;/div&gt;&lt;div style=&quot;font-size: 15px;&quot;&gt;&lt;br&gt;&lt;/div&gt;" style="whiteSpace=wrap;html=1;aspect=fixed;" vertex="1" parent="EbsH332W0nCXXA7KUUEa-15">
          <mxGeometry y="40" width="160" height="160" as="geometry" />
        </mxCell>
        <mxCell id="EbsH332W0nCXXA7KUUEa-18" value="" style="group" vertex="1" connectable="0" parent="1">
          <mxGeometry x="120" y="880" width="160" height="200" as="geometry" />
        </mxCell>
        <mxCell id="EbsH332W0nCXXA7KUUEa-19" value="&lt;font style=&quot;font-size: 15px;&quot;&gt;Historique&lt;/font&gt;" style="rounded=1;whiteSpace=wrap;html=1;" vertex="1" parent="EbsH332W0nCXXA7KUUEa-18">
          <mxGeometry width="160" height="50" as="geometry" />
        </mxCell>
        <mxCell id="EbsH332W0nCXXA7KUUEa-20" value="&lt;font style=&quot;font-size: 15px;&quot;&gt;Id_Historique&lt;/font&gt;&lt;div style=&quot;font-size: 15px;&quot;&gt;&lt;span style=&quot;background-color: initial;&quot;&gt;Date_Emprunt&lt;/span&gt;&lt;br&gt;&lt;/div&gt;&lt;div style=&quot;font-size: 15px;&quot;&gt;&lt;span style=&quot;background-color: initial;&quot;&gt;Date_retour&lt;/span&gt;&lt;/div&gt;&lt;div style=&quot;font-size: 15px;&quot;&gt;&lt;span style=&quot;background-color: initial;&quot;&gt;Statut&lt;/span&gt;&lt;/div&gt;&lt;div style=&quot;font-size: 15px;&quot;&gt;Catégorie ???&lt;/div&gt;&lt;div style=&quot;font-size: 15px;&quot;&gt;&lt;br&gt;&lt;/div&gt;&lt;div style=&quot;font-size: 15px;&quot;&gt;&lt;br&gt;&lt;/div&gt;&lt;div style=&quot;font-size: 15px;&quot;&gt;&lt;br&gt;&lt;/div&gt;" style="whiteSpace=wrap;html=1;aspect=fixed;" vertex="1" parent="EbsH332W0nCXXA7KUUEa-18">
          <mxGeometry y="40" width="160" height="160" as="geometry" />
        </mxCell>
        <mxCell id="EbsH332W0nCXXA7KUUEa-22" value="" style="group" vertex="1" connectable="0" parent="1">
          <mxGeometry x="250" y="-250" width="160" height="200" as="geometry" />
        </mxCell>
        <mxCell id="EbsH332W0nCXXA7KUUEa-23" value="&lt;font style=&quot;font-size: 15px;&quot;&gt;Réservation&lt;/font&gt;" style="rounded=1;whiteSpace=wrap;html=1;" vertex="1" parent="EbsH332W0nCXXA7KUUEa-22">
          <mxGeometry width="160" height="50" as="geometry" />
        </mxCell>
        <mxCell id="EbsH332W0nCXXA7KUUEa-24" value="&lt;font style=&quot;font-size: 15px;&quot;&gt;Id_Résservation&lt;/font&gt;&lt;div style=&quot;font-size: 15px;&quot;&gt;&lt;span style=&quot;background-color: initial;&quot;&gt;Date(&lt;/span&gt;&lt;span style=&quot;background-color: initial;&quot;&gt;réservation)&lt;/span&gt;&lt;/div&gt;&lt;div style=&quot;font-size: 15px;&quot;&gt;&lt;br&gt;&lt;/div&gt;&lt;div style=&quot;font-size: 15px;&quot;&gt;&lt;br&gt;&lt;/div&gt;&lt;div style=&quot;font-size: 15px;&quot;&gt;&lt;br&gt;&lt;/div&gt;" style="whiteSpace=wrap;html=1;aspect=fixed;" vertex="1" parent="EbsH332W0nCXXA7KUUEa-22">
          <mxGeometry y="40" width="160" height="160" as="geometry" />
        </mxCell>
        <mxCell id="EbsH332W0nCXXA7KUUEa-25" value="" style="endArrow=none;html=1;rounded=0;exitX=0.5;exitY=0;exitDx=0;exitDy=0;" edge="1" parent="1" source="EbsH332W0nCXXA7KUUEa-12">
          <mxGeometry width="50" height="50" relative="1" as="geometry">
            <mxPoint x="-10" y="370" as="sourcePoint" />
            <mxPoint x="80" y="290" as="targetPoint" />
          </mxGeometry>
        </mxCell>
        <mxCell id="EbsH332W0nCXXA7KUUEa-26" value="&lt;font style=&quot;font-size: 15px;&quot;&gt;Emprunter&lt;/font&gt;" style="text;html=1;align=center;verticalAlign=middle;resizable=0;points=[];autosize=1;strokeColor=none;fillColor=none;rotation=-65;fontSize=15;" vertex="1" parent="1">
          <mxGeometry x="-60" y="440" width="90" height="30" as="geometry" />
        </mxCell>
        <mxCell id="EbsH332W0nCXXA7KUUEa-29" value="" style="endArrow=none;html=1;rounded=0;entryX=0;entryY=0.25;entryDx=0;entryDy=0;exitX=1;exitY=0.25;exitDx=0;exitDy=0;" edge="1" parent="1" source="EbsH332W0nCXXA7KUUEa-3" target="EbsH332W0nCXXA7KUUEa-7">
          <mxGeometry width="50" height="50" relative="1" as="geometry">
            <mxPoint x="210" y="340" as="sourcePoint" />
            <mxPoint x="260" y="290" as="targetPoint" />
          </mxGeometry>
        </mxCell>
        <mxCell id="EbsH332W0nCXXA7KUUEa-30" value="Emprunter" style="text;html=1;align=center;verticalAlign=middle;resizable=0;points=[];autosize=1;strokeColor=none;fillColor=none;rotation=0;" vertex="1" parent="1">
          <mxGeometry x="260" y="120" width="80" height="30" as="geometry" />
        </mxCell>
        <mxCell id="EbsH332W0nCXXA7KUUEa-31" value="" style="endArrow=none;html=1;rounded=0;exitX=1;exitY=0.25;exitDx=0;exitDy=0;entryX=0.5;entryY=0;entryDx=0;entryDy=0;" edge="1" parent="1" source="EbsH332W0nCXXA7KUUEa-3" target="EbsH332W0nCXXA7KUUEa-16">
          <mxGeometry width="50" height="50" relative="1" as="geometry">
            <mxPoint x="40" y="400" as="sourcePoint" />
            <mxPoint x="380" y="520" as="targetPoint" />
          </mxGeometry>
        </mxCell>
        <mxCell id="EbsH332W0nCXXA7KUUEa-32" value="&lt;font style=&quot;font-size: 15px;&quot;&gt;Appartenir&lt;/font&gt;" style="text;html=1;align=center;verticalAlign=middle;resizable=0;points=[];autosize=1;strokeColor=none;fillColor=none;rotation=65;" vertex="1" parent="1">
          <mxGeometry x="183" y="304" width="90" height="30" as="geometry" />
        </mxCell>
        <mxCell id="EbsH332W0nCXXA7KUUEa-33" value="" style="endArrow=none;html=1;rounded=0;entryX=0;entryY=0.25;entryDx=0;entryDy=0;exitX=0.5;exitY=0;exitDx=0;exitDy=0;" edge="1" parent="1" source="EbsH332W0nCXXA7KUUEa-1" target="EbsH332W0nCXXA7KUUEa-24">
          <mxGeometry width="50" height="50" relative="1" as="geometry">
            <mxPoint x="50" y="78.95999999999998" as="sourcePoint" />
            <mxPoint x="236" y="-80.00000000000006" as="targetPoint" />
          </mxGeometry>
        </mxCell>
        <mxCell id="EbsH332W0nCXXA7KUUEa-34" value="&lt;font style=&quot;font-size: 15px;&quot;&gt;Réserver&lt;/font&gt;" style="text;html=1;align=center;verticalAlign=middle;resizable=0;points=[];autosize=1;strokeColor=none;fillColor=none;rotation=-55;fontSize=15;" vertex="1" parent="1">
          <mxGeometry x="105" y="-74" width="80" height="30" as="geometry" />
        </mxCell>
        <mxCell id="EbsH332W0nCXXA7KUUEa-35" value="" style="endArrow=none;html=1;rounded=0;entryX=0.5;entryY=1;entryDx=0;entryDy=0;" edge="1" parent="1" target="EbsH332W0nCXXA7KUUEa-7">
          <mxGeometry width="50" height="50" relative="1" as="geometry">
            <mxPoint x="790" y="880" as="sourcePoint" />
            <mxPoint x="580" y="340" as="targetPoint" />
          </mxGeometry>
        </mxCell>
        <mxCell id="EbsH332W0nCXXA7KUUEa-36" value="&lt;font style=&quot;font-size: 15px;&quot;&gt;Recevoir&lt;/font&gt;" style="text;html=1;align=center;verticalAlign=middle;resizable=0;points=[];autosize=1;strokeColor=none;fillColor=none;rotation=75;" vertex="1" parent="1">
          <mxGeometry x="667" y="548" width="80" height="30" as="geometry" />
        </mxCell>
        <mxCell id="EbsH332W0nCXXA7KUUEa-38" value="" style="endArrow=none;html=1;rounded=0;exitX=0.5;exitY=1;exitDx=0;exitDy=0;entryX=1;entryY=0.25;entryDx=0;entryDy=0;" edge="1" parent="1" source="EbsH332W0nCXXA7KUUEa-7" target="EbsH332W0nCXXA7KUUEa-20">
          <mxGeometry width="50" height="50" relative="1" as="geometry">
            <mxPoint x="570" y="300" as="sourcePoint" />
            <mxPoint x="240" y="880" as="targetPoint" />
          </mxGeometry>
        </mxCell>
        <mxCell id="EbsH332W0nCXXA7KUUEa-39" value="" style="endArrow=none;html=1;rounded=0;entryX=1;entryY=0.25;entryDx=0;entryDy=0;exitX=0.5;exitY=0;exitDx=0;exitDy=0;" edge="1" parent="1" source="EbsH332W0nCXXA7KUUEa-6" target="EbsH332W0nCXXA7KUUEa-24">
          <mxGeometry width="50" height="50" relative="1" as="geometry">
            <mxPoint x="310" y="270" as="sourcePoint" />
            <mxPoint x="360" y="220" as="targetPoint" />
          </mxGeometry>
        </mxCell>
        <mxCell id="EbsH332W0nCXXA7KUUEa-40" value="&lt;font style=&quot;font-size: 15px;&quot;&gt;Avoir&lt;/font&gt;" style="text;html=1;align=center;verticalAlign=middle;resizable=0;points=[];autosize=1;strokeColor=none;fillColor=none;rotation=55;" vertex="1" parent="1">
          <mxGeometry x="468" y="-81" width="60" height="30" as="geometry" />
        </mxCell>
        <mxCell id="EbsH332W0nCXXA7KUUEa-41" value="&lt;font style=&quot;font-size: 15px;&quot;&gt;Retrouver&lt;/font&gt;" style="text;html=1;align=center;verticalAlign=middle;resizable=0;points=[];autosize=1;strokeColor=none;fillColor=none;rotation=-65;" vertex="1" parent="1">
          <mxGeometry x="360" y="600" width="90" height="30" as="geometry" />
        </mxCell>
        <mxCell id="EbsH332W0nCXXA7KUUEa-42" value="(0,&lt;span style=&quot;font-size: 15px;&quot;&gt;1&lt;/span&gt;)" style="text;html=1;align=center;verticalAlign=middle;whiteSpace=wrap;rounded=0;rotation=-60;" vertex="1" parent="1">
          <mxGeometry x="492" y="344" width="60" height="30" as="geometry" />
        </mxCell>
        <mxCell id="EbsH332W0nCXXA7KUUEa-43" value="(0,&lt;font style=&quot;font-size: 15px;&quot;&gt;n&lt;/font&gt;)" style="text;html=1;align=center;verticalAlign=middle;whiteSpace=wrap;rounded=0;rotation=-60;" vertex="1" parent="1">
          <mxGeometry x="280" y="820" width="60" height="30" as="geometry" />
        </mxCell>
        <mxCell id="EbsH332W0nCXXA7KUUEa-45" value="&lt;font style=&quot;font-size: 15px;&quot;&gt;(0,n)&lt;/font&gt;" style="text;html=1;align=center;verticalAlign=middle;resizable=0;points=[];autosize=1;strokeColor=none;fillColor=none;rotation=-60;" vertex="1" parent="1">
          <mxGeometry x="20" y="314" width="50" height="30" as="geometry" />
        </mxCell>
        <mxCell id="EbsH332W0nCXXA7KUUEa-46" value="&lt;span style=&quot;color: rgb(0, 0, 0); font-family: Helvetica; font-size: 15px; font-style: normal; font-variant-ligatures: normal; font-variant-caps: normal; font-weight: 400; letter-spacing: normal; orphans: 2; text-align: center; text-indent: 0px; text-transform: none; widows: 2; word-spacing: 0px; -webkit-text-stroke-width: 0px; white-space: nowrap; background-color: rgb(251, 251, 251); text-decoration-thickness: initial; text-decoration-style: initial; text-decoration-color: initial; display: inline !important; float: none;&quot;&gt;(0,n)&lt;/span&gt;" style="text;whiteSpace=wrap;html=1;rotation=-65;" vertex="1" parent="1">
          <mxGeometry x="-106" y="600" width="60" height="40" as="geometry" />
        </mxCell>
        <mxCell id="EbsH332W0nCXXA7KUUEa-47" value="&lt;font style=&quot;font-size: 15px;&quot;&gt;(0,n)&lt;/font&gt;" style="text;html=1;align=center;verticalAlign=middle;resizable=0;points=[];autosize=1;strokeColor=none;fillColor=none;rotation=-55;" vertex="1" parent="1">
          <mxGeometry x="42" y="40" width="50" height="30" as="geometry" />
        </mxCell>
        <mxCell id="EbsH332W0nCXXA7KUUEa-48" value="&lt;font style=&quot;font-size: 15px;&quot;&gt;1,1&lt;/font&gt;" style="text;html=1;align=center;verticalAlign=middle;resizable=0;points=[];autosize=1;strokeColor=none;fillColor=none;rotation=-55;" vertex="1" parent="1">
          <mxGeometry x="185" y="-160" width="40" height="30" as="geometry" />
        </mxCell>
        <mxCell id="EbsH332W0nCXXA7KUUEa-50" value="(1,&lt;span style=&quot;font-size: 15px;&quot;&gt;n&lt;/span&gt;)" style="text;html=1;align=center;verticalAlign=middle;whiteSpace=wrap;rounded=0;rotation=75;" vertex="1" parent="1">
          <mxGeometry x="600" y="322" width="60" height="30" as="geometry" />
        </mxCell>
        <mxCell id="EbsH332W0nCXXA7KUUEa-51" value="(1,&lt;span style=&quot;font-size: 15px;&quot;&gt;1&lt;/span&gt;)" style="text;html=1;align=center;verticalAlign=middle;whiteSpace=wrap;rounded=0;rotation=75;" vertex="1" parent="1">
          <mxGeometry x="760" y="780" width="60" height="30" as="geometry" />
        </mxCell>
        <mxCell id="EbsH332W0nCXXA7KUUEa-52" value="&lt;font style=&quot;font-size: 15px;&quot;&gt;(1,n)&lt;/font&gt;" style="text;html=1;align=center;verticalAlign=middle;resizable=0;points=[];autosize=1;strokeColor=none;fillColor=none;rotation=60;" vertex="1" parent="1">
          <mxGeometry x="250" y="390" width="50" height="30" as="geometry" />
        </mxCell>
        <mxCell id="EbsH332W0nCXXA7KUUEa-53" value="&lt;font style=&quot;font-size: 15px;&quot;&gt;(1,1)&lt;/font&gt;" style="text;html=1;align=center;verticalAlign=middle;resizable=0;points=[];autosize=1;strokeColor=none;fillColor=none;rotation=60;" vertex="1" parent="1">
          <mxGeometry x="150" y="190" width="50" height="30" as="geometry" />
        </mxCell>
        <mxCell id="EbsH332W0nCXXA7KUUEa-54" value="&lt;font style=&quot;font-size: 15px;&quot;&gt;(1,n)&lt;/font&gt;" style="text;html=1;align=center;verticalAlign=middle;resizable=0;points=[];autosize=1;strokeColor=none;fillColor=none;rotation=0;" vertex="1" parent="1">
          <mxGeometry x="150" y="140" width="50" height="30" as="geometry" />
        </mxCell>
        <mxCell id="EbsH332W0nCXXA7KUUEa-55" value="&lt;font style=&quot;font-size: 15px;&quot;&gt;(1,1)&lt;/font&gt;" style="text;html=1;align=center;verticalAlign=middle;resizable=0;points=[];autosize=1;strokeColor=none;fillColor=none;rotation=0;" vertex="1" parent="1">
          <mxGeometry x="440" y="140" width="50" height="30" as="geometry" />
        </mxCell>
      </root>
    </mxGraphModel>
  </diagram>
</mxfile>
